<?xml version="1.0" encoding="UTF-8"?><svg id="Layer_2" xmlns="http://www.w3.org/2000/svg" viewBox="0 0 189.01 160.08"><defs><style>.cls-1{fill:#fff;}.cls-2{fill:#ff6958;}</style></defs><path class="cls-1" d="m161.99,151.77c-25.14-19.77-56.3-30.59-88.38-30.59-20.07,0-40.18,4.33-58.53,12.55-6.61-13.41-9.7-28.33-8.98-43.48C8.3,44.11,46.19,7.11,92.36,6.03c.71-.02,1.42-.03,2.13-.03,48.81,0,88.52,39.74,88.52,88.58,0,20.4-7.6,40.94-21.02,57.19Z"/><path class="cls-2" d="m94.5,0v12h0c45.5,0,82.51,37.04,82.51,82.58,0,17.17-5.79,34.46-16.14,48.83-25.3-18.28-55.85-28.23-87.27-28.23-18.92,0-37.87,3.69-55.46,10.74-4.55-11.12-6.63-23.17-6.04-35.39C14.14,47.52,49.46,13.04,92.5,12.02c.66-.02,1.33-.02,1.99-.02V0M94.49,0c-.75,0-1.52,0-2.27.03C42.98,1.19,2.45,40.72.11,89.96c-.9,18.85,3.72,36.56,12.37,51.64,19.4-9.68,40.32-14.42,61.13-14.42,31.97,0,63.65,11.2,88.98,32.84l.08.06h0c15.79-16.91,26.33-40.53,26.33-65.5C189.01,42.34,146.7,0,94.49,0h0Z"/></svg>