<?xml version="1.0" encoding="utf-8"?>
<!-- Generator: Adobe Illustrator 27.2.0, SVG Export Plug-In . SVG Version: 6.00 Build 0)  -->
<svg version="1.1" id="Layer_1" xmlns="http://www.w3.org/2000/svg" xmlns:xlink="http://www.w3.org/1999/xlink" x="0px" y="0px"
	 viewBox="0 0 201.7 54" style="enable-background:new 0 0 201.7 54;" xml:space="preserve">
<style type="text/css">
	.st0{fill:#FFFFFF;}
	.st1{fill:#121212;}
</style>
<g>
	<rect y="-0.1" class="st0" width="201.7" height="54.1"/>
</g>
<g>
	<path class="st1" d="M0,54h201.7V-0.1H0V54 M0,54 M2.4,54 M59,2.3h140.3v49.4H59V2.3z M2.4,2.3h54.3v49.4H2.4V2.3z"/>
</g>
<path class="st1" d="M48.9,36.4c-0.3,0-0.6-0.1-0.8-0.3c-0.5-0.5-0.5-1.2,0-1.7l4.5-4.6L48,25.3c-0.5-0.5-0.5-1.2,0-1.7
	c0.5-0.5,1.2-0.5,1.7,0l5,5c0.6,0.6,0.6,1.5,0.1,2.2l-0.1,0.1L49.7,36C49.5,36.2,49.2,36.4,48.9,36.4z M53.1,30.3L53.1,30.3
	L53.1,30.3z"/>
<path class="st1" d="M10.1,35.9c-0.3,0-0.6-0.1-0.8-0.3l-5-5c-0.6-0.6-0.6-1.5-0.1-2.2l0.1-0.1l5.1-5.1c0.5-0.5,1.2-0.5,1.7,0
	c0.5,0.5,0.5,1.2,0,1.7l-4.5,4.6l4.5,4.5c0.5,0.5,0.5,1.2,0,1.7C10.7,35.8,10.4,35.9,10.1,35.9z"/>
<g>
	<path class="st1" d="M45.1,21.3l0.2,0c1,0.1,1.9-0.5,2.1-1.5l0.1-0.6l1.3-0.4c0.5-0.2,0.8-0.7,0.7-1.2c-0.2-0.5-0.7-0.8-1.2-0.7
		l-1.3,0.4c-0.7,0.2-1.2,0.7-1.3,1.4l-0.1,0.6l-0.2,0c-0.6-0.1-1.1,0.1-1.5,0.5c-0.4,0.4-0.6,0.9-0.6,1.4l-1.3,0.1
		c-0.7-1.1-1.6-2-2.6-2.9l0.1-0.1c0.6-0.3,1-0.9,1.1-1.5c0.1-0.6,0-1.3-0.4-1.8c-0.1-0.1-0.1-0.3,0-0.4l0.1-0.1
		c0.5-0.7,0.6-1.7,0.1-2.5l-0.8-1.3c-0.3-0.5-0.9-0.6-1.3-0.3c-0.5,0.3-0.6,0.9-0.3,1.3l0.8,1.3c0.1,0.1,0.1,0.3,0,0.4l-0.1,0.1
		c-0.6,0.8-0.6,1.9,0,2.7c0.1,0.1,0.1,0.2,0.1,0.3c0,0.1,0,0.2-0.2,0.2l-0.8,0.5c0,0,0,0,0,0c-1.2-0.7-2.4-1.3-3.8-1.7
		c0.3-0.3,0.4-0.8,0.4-1.2c0-0.7-0.4-1.2-1-1.6l-0.1-0.1l0.5-0.7c0.5-0.7,0.5-1.6,0-2.2l1.2-0.4C35.3,9,35.5,8.5,35.4,8
		c-0.2-0.5-0.7-0.8-1.2-0.6l-1.3,0.4c-0.6,0.2-1.1,0.7-1.2,1.3c-0.2,0.6,0,1.2,0.3,1.7l-0.5,0.7c-0.3,0.4-0.4,1-0.3,1.5
		c0.1,0.5,0.5,1,0.9,1.2l0.1,0.1l-0.7,0.5c-0.1,0.1-0.1,0.1-0.2,0.2c-0.6-0.1-1.2-0.1-1.8-0.1c-1.2,0-2.3,0.1-3.4,0.4l-1-0.6
		c0,0-0.1,0-0.1-0.1c0-0.1,0-0.1,0.1-0.1c0.5-0.3,0.8-0.8,0.9-1.4c0.1-0.6,0-1.2-0.4-1.6l-0.1-0.1c0,0,0-0.1,0-0.1l0.2-0.5
		c0.4-0.8,0.2-1.8-0.4-2.4l-0.8-0.8C24,7,23.4,7,23,7.4c-0.4,0.4-0.4,1,0,1.4l0.8,0.8c0,0,0,0.1,0,0.1l-0.2,0.5
		c-0.3,0.7-0.2,1.5,0.2,2.1l0.1,0.1c0,0,0,0.1,0,0.1c0,0,0,0.1-0.1,0.1c-0.6,0.4-1,1.1-0.9,1.8c0,0.6,0.3,1.1,0.6,1.4
		c-1.3,0.6-2.6,1.3-3.6,2.2l-1-0.2c0.3-0.5,0.3-1.2,0.1-1.7c-0.2-0.6-0.7-1-1.3-1.1l0,0l0,0l0.7-0.9c0.3-0.4,0.3-1-0.1-1.4
		c-0.4-0.3-1-0.3-1.4,0.1l-0.7,0.9c-0.4,0.5-0.6,1.2-0.4,1.9c0.2,0.6,0.7,1.1,1.4,1.3l0,0l0,0c-0.3,0.5-0.3,1.2-0.1,1.8
		c0.2,0.5,0.6,0.8,1.1,1c-0.8,0.8-1.4,1.8-2,2.8l-1-0.2c0,0,0,0,0,0c0,0,0,0,0-0.1c0.1-0.5,0-1.1-0.2-1.5c-0.3-0.5-0.7-0.8-1.3-0.9
		l-0.8-0.2c0,0,0,0-0.1,0l-0.2-0.6c-0.3-0.9-1.1-1.5-2-1.4l-1.3,0.1c-0.5,0-1,0.5-0.9,1c0,0.5,0.5,1,1,0.9l1.3-0.1c0,0,0.1,0,0.1,0
		l0.2,0.6c0.2,0.7,0.8,1.2,1.5,1.4l0.8,0.2c0,0,0,0,0,0c0,0,0,0,0,0.1c-0.1,0.5,0,1.1,0.3,1.6s0.8,0.8,1.3,0.9l0.5,0.1
		c-0.3,0.7-0.5,1.4-0.7,2.2c-0.5-0.5-1.2-0.8-1.9-0.7c-0.9,0.1-1.7,0.7-2.1,1.7c0,0.1-0.1,0.2-0.1,0.3c-0.4,1.3-0.1,2.8,0.8,3.7
		l0.6,0.6c0.6,0.6,1.3,0.9,2.1,0.9c0.2,0,0.3,0,0.5,0c1.4,6.8,7.5,11.9,14.7,11.9c6.9,0,12.7-4.7,14.5-11c0.2,0,0.3,0,0.5,0
		c0.8,0,1.7-0.3,2.4-0.8l0.8-0.6c1.1-0.9,1.6-2.4,1.2-3.8c0-0.1-0.1-0.2-0.1-0.3c-0.4-0.9-1.1-1.5-2.1-1.6c-0.9-0.1-1.7,0.1-2.4,0.7
		c-0.2-1.5-0.7-2.9-1.3-4.3l0.3,0C44.3,23.1,45,22.3,45.1,21.3z M13.5,30.6L12.9,30c-0.4-0.4-0.5-1.1-0.3-1.7c0,0,0-0.1,0-0.1
		c0.1-0.3,0.3-0.4,0.5-0.4c0.1,0,0.3,0.1,0.3,0.2l0.7,1.1c0.1,0.1,0.2,0.2,0.3,0.3c0,0.1,0,0.3,0,0.4c0,0.4,0,0.8,0,1.2
		C14.2,31,13.8,30.9,13.5,30.6z M44.5,30.2c0,0,0.1-0.1,0.1-0.1l1-1.1c0.2-0.3,0.6-0.3,0.8-0.3c0.2,0,0.4,0.1,0.6,0.4
		c0,0,0,0.1,0,0.1c0.2,0.6,0,1.3-0.5,1.7l-0.8,0.6c-0.4,0.3-0.8,0.4-1.3,0.4C44.4,31.3,44.5,30.7,44.5,30.2z M29.5,42.8
		c-7.2,0-13.1-5.9-13.1-13.1c0-7.2,5.9-13.1,13.1-13.1c7.2,0,13.1,5.9,13.1,13.1C42.5,36.9,36.7,42.8,29.5,42.8z"/>
	<g>
		<path class="st1" d="M34.7,23.3L34.7,23.3c-0.4-0.1-0.7-0.2-1.1-0.2c-1.8-0.1-3.5,1-4.1,2.6c-0.6-1.6-2.2-2.7-3.9-2.7
			c-2.3,0-4.2,1.9-4.2,4.2c0,2.3,1.9,4.2,4.2,4.2c1.7,0,3.3-1.1,3.9-2.7c0.6,1.6,2.2,2.7,3.9,2.7c2.3,0,4.2-1.9,4.2-4.2
			C37.6,25.5,36.4,23.9,34.7,23.3z M25.6,29.9c-1.4,0-2.6-1.2-2.6-2.6s1.2-2.6,2.6-2.6c0,0,0.1,0,0.1,0c-0.8,0.4-1.3,1.2-1.3,2.1
			c0,1.3,1.1,2.4,2.5,2.4c0.2,0,0.4,0,0.6-0.1C27,29.6,26.4,29.9,25.6,29.9z M33.4,29.9c-1.4,0-2.6-1.2-2.6-2.6
			c0-0.5,0.2-1.1,0.5-1.5c0.1,1.2,1.2,2.1,2.4,2.1c1,0,1.8-0.6,2.2-1.4C36,26.8,36,27,36,27.3C36,28.7,34.9,29.9,33.4,29.9z"/>
	</g>
	<g>
		<path class="st1" d="M35,37.7c-0.2,0.4-0.7,0.7-1.1,0.7h0l-7.9-0.1c-0.5,0-0.9-0.3-1.1-0.7c-0.2-0.4-0.2-0.9,0.1-1.3l1-1.3
			c1-1.3,2.5-2.1,4.1-2c1.6,0,3.1,0.8,4.1,2.2l0.9,1.3C35.2,36.7,35.2,37.2,35,37.7z"/>
	</g>
</g>
<path class="st1" d="M193.9,12.2L193.9,12.2z"/>
<g>
	<path class="st1" d="M115.6,16.8L115.6,16.8z"/>
	<path class="st1" d="M121.9,18.7c0-0.5-0.1-1.1-0.3-1.6c-0.2-0.5-0.5-1-0.9-1.4c-0.7-0.9-1.5-1.6-2.5-2.2c-2.1-1.3-5.9-2.3-8.2-0.5
		c0,0-0.1,0.1-0.1,0.1c-0.2,0.4-0.1,0.8,0.2,1.1c0.5,0.6,1.6,0.3,2.1,0.9c0.3,0.3,0.3,0.7,0.3,1.1c0.1,2.1,0.3,4.1,0.4,6.2
		c0,0.5-0.5,0.8-1,0.9c-0.5,0.1-1.1,0.1-1.4,0.5c-0.3,0.3-0.3,0.9-0.3,1.3c0,0.4,0.1,0.7,0.2,1.1c0.1,0.3,0.2,0.6,0.5,0.8
		c0.3,0.2,0.7,0.2,1.1,0.1c1-0.2,2-0.3,3.1-0.5c1-0.1,1.9-0.3,2.8-0.7c0.9-0.4,1.6-1.1,2.3-1.9C121.3,22.6,122,20.6,121.9,18.7z
		 M118.2,20.7c-0.4,0.9-0.8,1.8-1.6,2.3c-0.1,0-0.1,0.1-0.2,0.1c-0.1,0-0.2-0.1-0.2-0.2c-0.3-0.4-0.3-0.9-0.4-1.3
		c-0.2-1.9-0.3-3.8-0.4-5.8c0-0.1,0-0.3,0.2-0.3c1.1,0.2,1.7,1.1,2.3,2c0.3,0.4,0.5,0.7,0.6,1.2C118.7,19.4,118.5,20.1,118.2,20.7z"
		/>
	<path class="st1" d="M151.7,13.5c-1.3,0.1-2.5,0.1-3.8,0.2c-0.5,0-1,0.1-1.4,0.4c-0.4,0.3-0.5,0.9-0.1,1.2c0.4,0.3,1.2,0,1.4,0.5
		c0,0.1,0,0.2,0,0.3c0,2.8,0,5.5-0.1,8.3c0,0.4,0,0.9-0.3,1.2c-0.5,0.5-1.3,0.1-1.9,0.4c-0.4,0.2-0.6,0.7-0.6,1.1
		c0,0.4,0.2,0.9,0.3,1.3c0,0.1,0.1,0.2,0.2,0.3c0.1,0.1,0.2,0.1,0.3,0c2.2-0.1,4.4-0.3,6.6-0.4c0.2,0,0.4,0,0.6-0.1
		c0.3-0.2,0.4-0.5,0.5-0.8c0.1-0.4,0.2-0.9-0.1-1.2c-0.3-0.3-0.9-0.1-1.3-0.3c-0.3-0.2-0.4-0.6-0.5-1c-0.3-2.3-0.4-4.6-0.5-7
		c0-0.5,0-1.1,0.3-1.5c0.3-0.5,0.9-0.6,1.4-0.9c0.5-0.3,1-0.7,0.8-1.3c-0.1-0.4-0.4-0.7-0.8-0.7S152,13.5,151.7,13.5
		C151.5,13.6,151.4,13.6,151.7,13.5z"/>
	<g>
		<path class="st1" d="M169.7,13l0,0.9c0,0.2,0,0.5-0.2,0.8c-0.3,0.5-0.9,0.5-1.2,0.5c-0.1,0-0.2,0-0.2,0c-0.4,0.1-0.6,0.6-0.8,1
			l-5.7,12.5c-0.2,0.3-0.5,0.6-0.9,0.6c0,0-0.1,0-0.1,0c-0.4,0-0.8-0.3-0.8-0.7l-1.5-6.8c-0.3-1.5-0.7-3-1.3-4.4c0,0-0.1,0-0.1,0
			c-0.1,0-0.2,0.1-0.3,0.1c-0.5,0.1-1.1-0.1-1.4-0.5c-0.4-0.4-0.5-1-0.4-1.5c0.3-1,1.4-1.3,1.9-1.4c1.2-0.3,2.5-0.7,3.8-0.7l0.5,0
			l0,0.5c0.2,2.2,0.4,4.3,0.7,6.6c0.9-2.3,1.6-4.7,2.3-7.1c0.1-0.2,0.2-0.6,0.5-0.8c0.3-0.2,0.6-0.2,0.8-0.3
			c1.2-0.1,2.4-0.2,3.5-0.1c0.1,0,0.4,0,0.6,0.2C169.7,12.5,169.7,12.8,169.7,13z"/>
	</g>
	<path class="st1" d="M111,12.5L111,12.5z"/>
	<path class="st1" d="M110.4,12.5L110.4,12.5z"/>
	<path class="st1" d="M110.4,12.8L110.4,12.8z"/>
	<path class="st1" d="M71.1,26.8c-0.3,0-0.6-0.1-0.8-0.3l-5-5c-0.6-0.6-0.6-1.5-0.1-2.2l0.1-0.1l5.1-5.1c0.5-0.5,1.2-0.5,1.7,0
		c0.5,0.5,0.5,1.2,0,1.7l-4.5,4.6l4.5,4.5c0.5,0.5,0.5,1.2,0,1.7C71.7,26.7,71.4,26.8,71.1,26.8z"/>
	<g>
		<path class="st1" d="M96.5,25.1c-0.1,0.6-0.6,1-1.1,1c-1.1,0-2.1,0.1-3.2,0.4c-0.1,0-0.2,0-0.3,0c-0.3,0-0.5-0.1-0.7-0.3
			c-0.3-0.2-0.4-0.6-0.4-0.9c0-0.4,0.1-1.2,0.2-2.2c0.1-1.3,0.3-3,0.2-3.6c0-0.4-0.3-0.6-0.5-0.7c-0.2-0.1-0.6,0-0.8,0.3l-1.1,1.7
			c-0.1,0.1-0.2,0.2-0.3,0.2c-0.2,0-0.4-0.2-0.5-0.3l-1.3-1.1c-0.3-0.3-0.6-0.3-0.9-0.3c-0.2,0.1-0.5,0.3-0.5,0.7
			c0,0.3,0.2,1.3,0.4,2.2c0.3,1.2,0.5,2.4,0.4,2.9c-0.1,0.6-0.7,1-1.3,1c-1.6-0.2-3.2-0.1-4.8,0.2c-0.4,0.1-0.9-0.1-1.2-0.4
			c-0.3-0.3-0.3-0.7-0.2-1.1c0.1-0.4,0.4-0.7,0.8-0.8c0.5-0.1,1-0.3,1.4-0.4c0.2-0.1,0.3-0.1,0.5,0l0.1,0c-0.6-3.2-1.3-6.4-2.1-9.5
			c-0.1-0.3,0-0.6,0.1-0.9c0.2-0.3,0.4-0.4,0.7-0.5l4.8-1.1c0.2,0,0.4-0.1,0.6,0c0.2,0.1,0.3,0.3,0.4,0.4l1.6,2.5
			c0.1,0.2,0.4,0.4,0.7,0.4c0.3,0,0.5-0.1,0.6-0.4c0.4-0.6,0.7-1.3,0.8-2.1c0-0.2,0.1-0.4,0.3-0.6c0.1-0.1,0.3-0.1,0.5-0.1l4.1-0.3
			c0.2,0,0.5,0,0.7,0.2c0.2,0.2,0.2,0.5,0.2,0.7l-0.5,9.8c0,0.2,0,0.4,0.1,0.5c0.1,0.2,0.3,0.2,0.5,0.3c0.1,0,0.3,0.1,0.4,0.2
			C96.2,23.4,96.6,23.9,96.5,25.1z"/>
	</g>
	<path class="st1" d="M187.2,28.6c-0.3,0-0.6-0.1-0.8-0.3c-0.5-0.5-0.5-1.2,0-1.7l4.5-4.6l-4.5-4.5c-0.5-0.5-0.5-1.2,0-1.7
		c0.5-0.5,1.2-0.5,1.7,0l5,5c0.6,0.6,0.6,1.5,0.1,2.2l-0.1,0.1l-5.1,5.1C187.8,28.5,187.5,28.6,187.2,28.6z M191.4,22.6L191.4,22.6
		L191.4,22.6z"/>
	<g>
		<path class="st1" d="M180,14.7c0,1.1-0.1,2.2-0.4,3.3c-0.3,1.2-1.1,1.4-1.4,1.5c-0.4,0-1.1-0.1-1.6-1l-0.1-0.2
			c-0.2-0.3-0.3-0.6-0.5-0.8c-0.2-0.2-0.3-0.2-0.4-0.2c0,0-0.1,0-0.3,0.2c-0.4,0.4-0.7,1-0.7,1.7c0,0.7,0.2,1.3,0.6,1.7
			c0.3,0.3,0.7,0.5,1.1,0.8c0.6,0.4,1.3,0.8,1.8,1.5c0.9,1.3,1,3.2,0,4.7c-0.7,1.1-1.8,2-3.4,2.8c-1.3,0.6-2.4,0.9-3.5,0.9
			c-0.2,0-0.3,0-0.5,0c-1.6-0.1-3-1-3.7-2.3c-0.4-0.7-0.5-1.4-0.6-2c-0.1-0.6-0.3-1.7,0.5-2.6c0.6-0.7,1.6-0.7,2.3-0.2
			c0.7,0.6,0.7,1.4,0.6,1.8c0,0.1,0,0.3,0,0.3c0,0.1,0.1,0.2,0.3,0.2c0.3,0.1,0.7,0.1,1.1,0.1c0.7,0,1.4,0,1.9-0.3
			c0.1-0.1,0.2-0.1,0.2-0.2c0.2-0.3,0.1-0.6-0.6-1.5c-0.4-0.4-0.8-0.9-1.2-1.3c-0.2-0.1-0.3-0.3-0.5-0.4c-0.3-0.3-0.7-0.6-1-0.9
			c-0.8-0.8-0.9-1.3-1.2-2.1L169,20c-0.4-1.2-0.3-2.8,0.3-3.9c0.5-1,2.7-2.1,2.8-2.2c2-1,2.8-1.4,5.3-1.4c0.5,0,1.1,0,1.6,0.3
			c0.2,0.1,0.3,0.2,0.5,0.4C179.8,13.6,180,14.1,180,14.7z"/>
	</g>
	<path class="st1" d="M125.9,19.8c-0.3,0.7-0.2,1-0.3,1.7c0,0.1,0,0.3,0,0.4c0.1,0.2,0.4,0.2,0.6,0.3c1.7,0.1,3.4,0.2,5,0.3
		c0.1,0,0.2,0,0.3,0c0.1-0.1,0.1-0.2,0.2-0.3c0.3-0.6,0.4-1.3,0.5-1.9c0-0.1,0-0.2,0-0.3c-0.1-0.1-0.2-0.1-0.3-0.1
		c-1-0.3-2.1-0.3-3.1-0.3c-0.9,0-1.7,0-2.6-0.1C126.2,19.4,125.9,19.7,125.9,19.8z"/>
	<path class="st1" d="M108.5,18.6c0,0-0.1-0.1-0.1-0.1c-0.1-0.3-0.2-0.6-0.3-0.9c-0.1-0.3-0.1-0.5-0.2-0.8c-0.2-0.6-0.5-1.1-0.7-1.6
		c-0.2-0.3-0.3-0.6-0.5-0.9c-0.2-0.5-0.4-1-0.5-1.6c-0.3-0.9-0.5-1.9-1.1-2.8c-0.3-0.5-0.9-0.8-1.5-0.8h0c-0.6,0-1.2,0.3-1.5,0.9
		c-1.5,2.6-2.9,5.3-4.1,8.1l-0.1,0c-0.8,0.3-1.3,1.2-1.1,2.1c0.2,0.9,1.1,1.4,2,1.3l1.2-0.2c0.7-0.1,1.4-0.4,1.8-1
		c0.2-0.2,0.7-0.8,0.4-1.5c0-0.1-0.1-0.2-0.1-0.2l0.6-1.4l1.5,0c0.3,0.6,0.3,1.4,0.1,2c-0.2,0.6-0.1,1.2,0.2,1.7
		c0.3,0.5,0.9,0.7,1.4,0.7c0,0,0.1,0,0.1,0c0.4,0,0.8-0.1,1.2-0.1c0.6-0.1,1.2-0.5,1.4-1.1C109,19.7,108.9,19.1,108.5,18.6z
		 M103.4,12.4l0.9,2.4l-1.6,0h-0.1L103.4,12.4z"/>
	<path class="st1" d="M145,22.5c0-0.5-0.1-1.1-0.3-1.6c-0.2-0.5-0.5-1-0.9-1.4c-0.7-0.9-1.5-1.6-2.5-2.2c-2.1-1.3-5.9-2.3-8.2-0.5
		c0,0-0.1,0.1-0.1,0.1c-0.2,0.4-0.1,0.8,0.2,1.1c0.5,0.6,1.6,0.3,2.1,0.9c0.3,0.3,0.3,0.7,0.3,1.1c0.1,2.1,0.3,4.1,0.4,6.2
		c0,0.5-0.5,0.8-1,0.9c-0.5,0.1-1.1,0.1-1.4,0.5c-0.3,0.3-0.3,0.9-0.3,1.3c0,0.4,0.1,0.7,0.2,1.1c0.1,0.3,0.2,0.6,0.5,0.8
		c0.3,0.2,0.7,0.2,1.1,0.1c1-0.2,2-0.3,3.1-0.5c1-0.1,1.9-0.3,2.8-0.7c0.9-0.4,1.6-1.1,2.3-1.9C144.4,26.5,145.1,24.4,145,22.5z
		 M141.3,24.5c-0.4,0.9-0.8,1.8-1.6,2.3c0,0-0.1,0.1-0.2,0.1c-0.1,0-0.2-0.1-0.2-0.2c-0.3-0.4-0.3-0.9-0.4-1.3
		c-0.2-1.9-0.3-3.8-0.4-5.8c0-0.1,0-0.3,0.2-0.3c1.1,0.2,1.7,1.1,2.3,2c0.3,0.4,0.5,0.7,0.6,1.2C141.8,23.2,141.6,23.9,141.3,24.5z"
		/>
</g>
</svg>
