<?xml version="1.0" encoding="UTF-8"?><svg id="Layer_1" xmlns="http://www.w3.org/2000/svg" viewBox="0 0 854 217"><defs><style>.cls-1{fill:#121212;}</style></defs><path class="cls-1" d="m0,217h854V0H0v217m0,0,9.97,0M249.97,9.44h594.06v198.11H249.97V9.44Zm-240,0h230.03v198.11H9.97V9.44Z"/><path class="cls-1" d="m206.97,146.2c-1.27,0-2.54-.46-3.51-1.37-1.95-1.84-1.96-4.83-.02-6.68l19.19-18.3-19.18-18.17c-1.95-1.84-1.95-4.83,0-6.68,1.95-1.84,5.1-1.84,7.05,0l21.38,20.26c2.54,2.4,2.71,6.17.4,8.77l-.28.29-21.49,20.49c-.97.93-2.26,1.39-3.54,1.39Zm17.86-24.27h.02-.02Z"/><path class="cls-1" d="m42.91,144.37c-1.28,0-2.55-.46-3.52-1.38l-21.38-20.26c-2.54-2.4-2.71-6.17-.4-8.77l.28-.29,21.49-20.49c1.94-1.85,5.1-1.86,7.05-.02,1.95,1.84,1.96,4.83.02,6.68l-19.19,18.3,19.18,18.17c1.95,1.84,1.95,4.83,0,6.68-.97.92-2.25,1.38-3.52,1.38Z"/><g><path class="cls-1" d="m186.17,85.73l.86.13c3.87.6,7.52-2.03,8.29-5.97l.46-2.38,4.93-1.51c2.03-.63,3.18-2.82,2.58-4.91-.61-2.08-2.75-3.26-4.8-2.63l-5.12,1.57c-2.61.8-4.57,2.99-5.1,5.73l-.43,2.27-.92-.14c-2.18-.33-4.35.35-6,1.84-1.55,1.43-2.43,3.45-2.44,5.57l-4.9.22c-2.87-4.27-6.27-8.12-10.1-11.51l.45-.27c2.18-1.32,3.74-3.54,4.24-6.08.51-2.55-.06-5.21-1.57-7.3-.32-.47-.34-1.09-.02-1.56l.37-.54c2.04-2.97,2.18-6.93.35-10.04l-2.98-5.1c-1.09-1.87-3.46-2.47-5.27-1.35-1.83,1.12-2.41,3.54-1.32,5.4l3,5.12c.26.44.25,1.01-.06,1.45l-.37.54c-2.23,3.24-2.18,7.55.11,10.75.31.41.28.83.23,1.05-.05.22-.18.63-.61.88l-3.09,1.87s-.09.06-.14.09c-4.55-2.97-9.53-5.34-14.82-6.96,1.08-1.39,1.64-3.15,1.55-5.01-.12-2.63-1.54-4.97-3.8-6.25l-.51-.28,1.89-2.74c1.89-2.71,1.81-6.33-.12-8.94l4.77-1.56c2.03-.66,3.14-2.88,2.49-4.94-.65-2.08-2.8-3.21-4.83-2.55l-5.2,1.7c-2.37.77-4.18,2.69-4.86,5.13-.66,2.38-.15,4.9,1.35,6.8l-1.97,2.82c-1.21,1.75-1.64,3.95-1.18,6.06.46,2.09,1.78,3.89,3.61,4.93l.4.22-2.6,1.81c-.29.22-.55.46-.77.74-2.31-.3-4.66-.44-7.04-.44-4.64,0-9.15.55-13.48,1.59l-4.09-2.41c-.06-.03-.25-.14-.26-.42,0-.3.17-.41.23-.46,1.88-1.27,3.17-3.29,3.55-5.56.38-2.27-.17-4.63-1.52-6.47l-.38-.54c-.12-.16-.14-.36-.06-.54l.92-2.05c1.44-3.21.75-7.04-1.74-9.51l-3.23-3.23c-1.52-1.51-3.95-1.48-5.43.08-1.49,1.56-1.44,4.05.08,5.56l3.23,3.23c.15.16.18.39.11.58l-.92,2.05c-1.26,2.8-.92,6.08.88,8.55l.4.54c.09.13.12.25.09.39-.02.16-.09.27-.22.35-2.38,1.62-3.75,4.33-3.67,7.26.08,2.23.98,4.3,2.52,5.79-5.2,2.27-9.99,5.27-14.3,8.89l-3.78-.96c1.12-2.14,1.21-4.64.29-6.86-.92-2.23-2.75-3.89-5.03-4.55l-.06-.14-.03-.02,2.81-3.43c1.37-1.65,1.15-4.14-.48-5.54-1.61-1.4-4.04-1.18-5.41.49l-2.81,3.43c-1.69,2.08-2.24,4.86-1.48,7.44.78,2.6,2.77,4.6,5.32,5.34l.06.13.03.02c-1.15,2.2-1.23,4.78-.2,7.07.85,1.87,2.34,3.32,4.18,4.06-2.95,3.37-5.53,7.08-7.69,11.08l-4.07-.77s-.11-.02-.18-.13c-.06-.09-.05-.19-.03-.2.51-2.14.15-4.34-.97-6.22-1.14-1.87-2.92-3.16-5.01-3.65l-3.06-.71c-.09-.02-.17-.09-.2-.19l-.75-2.49c-1.09-3.54-4.4-5.89-7.99-5.68l-5.26.27c-2.12.11-3.75,1.95-3.64,4.12s1.92,3.86,4.03,3.73l5.26-.27c.15.02.23.08.28.19l.75,2.49c.86,2.75,3.09,4.86,5.84,5.49l3.06.72s.11.02.17.13c.06.09.03.17.03.2-.51,2.17-.12,4.49,1.06,6.36,1.18,1.87,3.11,3.18,5.24,3.57l2.12.39c-1.08,2.82-1.94,5.73-2.57,8.72-1.94-2.16-4.63-3.24-7.49-2.97-3.61.36-6.76,2.93-8.22,6.67-.14.38-.26.76-.38,1.16-1.55,5.41-.28,11.22,3.31,14.86l2.52,2.44c2.31,2.25,5.2,3.42,8.19,3.42.66,0,1.32-.06,1.98-.17,5.61,27.25,29.28,47.75,57.55,47.75s49.78-18.68,56.68-44.09c.66.09,1.32.14,1.98.14,3.32,0,6.59-1.1,9.3-3.18l3.26-2.52c4.49-3.6,6.36-9.55,4.8-15.17-.11-.41-.25-.82-.42-1.21-1.4-3.51-4.46-5.95-8.18-6.53-3.38-.54-6.84.55-9.32,2.88-.94-6.03-2.74-11.77-5.29-17.08l1.15-.05c3.89-.17,6.96-3.46,7.03-7.41Zm-123.44,37.52l-2.46-2.39c-1.52-1.54-2.04-4.36-1.28-6.99.05-.16.09-.31.15-.47.4-1.02,1.08-1.67,1.81-1.75.54-.06,1,.22,1.37.8l2.84,4.53c.31.5.72.91,1.18,1.2-.02.5-.02,1.02-.02,1.53,0,1.57.06,3.15.17,4.69-1.38.3-2.71-.09-3.78-1.15Zm121.26-1.83c.17-.14.32-.3.46-.47l3.74-4.58c.94-1.12,2.28-1.37,3.23-1.21.63.09,1.74.46,2.26,1.73.05.14.09.27.14.41.69,2.52-.15,5.19-2.11,6.75l-3.2,2.49c-1.46,1.12-3.27,1.67-5.07,1.57.29-2.19.48-4.42.55-6.69Zm-58.81,50.65c-28.21,0-51.14-23.48-51.14-52.37s22.94-52.37,51.14-52.37,51.14,23.5,51.14,52.37-22.95,52.37-51.14,52.37Z"/><path class="cls-1" d="m145.56,93.82l-.2-.08c-1.21-.38-2.54-.61-3.94-.71-7.06-.39-13.57,4.06-16.13,10.62-2.46-6.3-8.53-10.64-15.28-10.64-9.07,0-16.45,7.56-16.45,16.83s7.38,16.84,16.45,16.84c6.75,0,12.82-4.34,15.28-10.66,2.44,6.31,8.52,10.66,15.26,10.66,9.07,0,16.45-7.55,16.45-16.84,0-7.37-4.6-13.79-11.45-16.02Zm-35.54,26.57c-5.67,0-10.3-4.74-10.3-10.55s4.63-10.53,10.3-10.53c.14,0,.28,0,.43.02-2.98,1.67-4.93,4.85-4.93,8.39,0,5.29,4.3,9.6,9.61,9.6.83,0,1.64-.11,2.43-.31-1.92,2.12-4.64,3.38-7.53,3.38Zm30.54,0c-5.67,0-10.28-4.74-10.28-10.55,0-2.2.66-4.3,1.89-6.04.57,4.74,4.63,8.44,9.53,8.44,3.77,0,7.13-2.23,8.69-5.54.32,1.01.48,2.06.48,3.15,0,5.81-4.63,10.55-10.3,10.55Z"/><path class="cls-1" d="m146.62,151.45c-.89,1.68-2.58,2.74-4.44,2.74h-.06l-31.01-.35c-1.89-.03-3.6-1.12-4.46-2.86-.85-1.75-.66-3.79.46-5.37l3.75-5.23c3.83-5.32,9.68-8.29,16.16-8.18,6.46.11,12.24,3.31,15.88,8.75l3.43,5.16c1.08,1.59,1.18,3.64.29,5.34Z"/></g><g><path class="cls-1" d="m516.1,75.2c-.12-2.12-.47-4.25-1.29-6.22-.88-2.11-2.28-3.99-3.8-5.74-3.01-3.48-6.56-6.59-10.64-8.9-9-5.1-25.05-9.09-34.52-1.88-.15.11-.23.43-.23.43-.66,1.42-.32,3.21.82,4.32,2.31,2.25,6.76,1.4,8.9,3.79,1.1,1.22,1.25,2.94,1.36,4.54.54,8.29,1.07,16.59,1.61,24.88.13,2.04-2.24,3.38-4.36,3.8-2.11.42-4.51.52-6,2-1.35,1.35-1.48,3.42-1.3,5.27.14,1.51.43,3.01.86,4.47.36,1.22.88,2.49,1.98,3.21,1.34.87,3.13.67,4.74.44,4.34-.63,8.67-1.26,13.01-1.89,4.06-.59,8.18-1.2,11.9-2.84,3.77-1.67,6.98-4.35,9.55-7.45,5.18-6.24,7.86-14.3,7.4-22.22Zm-15.48,8.32c-1.55,3.51-3.41,7.17-6.8,9.21-.21.13-.44.25-.69.25-.39-.01-.68-.33-.9-.63-1.09-1.57-1.36-3.51-1.58-5.38-.9-7.67-1.35-15.38-1.81-23.08-.04-.57.04-1.1.89-1.04,4.45.65,7.28,4.47,9.86,7.97,1.07,1.45,2.17,2.95,2.59,4.68.65,2.69-.43,5.47-1.56,8.02Z"/><path class="cls-1" d="m642.38,54.69c-5.34.28-10.68.57-16.02.85-2.01.11-4.16.26-5.73,1.45s-2.07,3.8-.43,4.91c1.83,1.24,5.2.05,6.12,2,.2.43.21.91.21,1.38.03,11.13-.05,22.25-.25,33.38-.03,1.68-.16,3.55-1.47,4.67-2.12,1.81-5.71.39-8.2,1.7-1.64.86-2.42,2.74-2.4,4.52.02,1.77.7,3.47,1.37,5.12.17.42.36.86.76,1.11.41.25.93.23,1.42.2,9.28-.58,18.56-1.16,27.83-1.73.81-.05,1.65-.11,2.36-.49,1.2-.64,1.7-2.02,2.1-3.28.51-1.62.9-3.66-.46-4.75-1.47-1.17-3.86-.26-5.53-1.16-1.44-.78-1.8-2.57-1.99-4.13-1.14-9.3-1.88-18.65-2.21-28.02-.07-2.07-.08-4.29,1.16-5.99,1.32-1.81,3.7-2.56,5.74-3.6s4.06-2.96,3.6-5.12c-.32-1.52-1.85-2.61-3.44-2.97s-3.26-.14-4.89.08c-.37.05-.74.1.37-.12Z"/><path class="cls-1" d="m718.67,52.33l-.07,3.49c-.02.72-.03,1.92-.81,3.02-1.35,1.89-3.64,1.9-5.02,1.92-.35,0-.71,0-1.03.03-1.5.2-2.67,2.3-3.54,4.11l-23.94,50.24c-.66,1.4-2.13,2.28-3.72,2.28-.13,0-.28,0-.42-.02-1.76-.17-3.19-1.37-3.57-3.01l-6.46-27.39c-1.41-5.98-2.87-12.17-5.4-17.82-.17.05-.37.11-.52.14-.42.13-.83.24-1.23.31-2.16.39-4.49-.41-6.06-2.11-1.59-1.7-2.16-3.98-1.5-5.97,1.31-3.82,5.82-5.08,7.96-5.68,4.93-1.37,10.5-2.93,16.23-2.66l2.16.09.2,2.05c.83,8.77,1.78,17.33,2.81,26.41,3.61-9.33,6.9-18.86,9.82-28.38.27-.85.7-2.27,2.01-3.21,1.16-.87,2.53-.99,3.34-1.07,4.95-.44,10-.63,15-.54.47.02,1.74.03,2.72.94,1.06.99,1.03,2.3,1.03,2.79Z"/><path class="cls-1" d="m301.07,107.92c-1.28,0-2.55-.46-3.52-1.38l-21.38-20.26c-2.54-2.4-2.71-6.17-.4-8.77l.28-.29,21.49-20.49c1.94-1.85,5.1-1.86,7.05-.02,1.95,1.84,1.96,4.83.02,6.68l-19.19,18.3,19.18,18.17c1.95,1.84,1.95,4.83,0,6.68-.97.92-2.25,1.38-3.52,1.38Z"/><path class="cls-1" d="m408.64,100.89c-.3,2.3-2.36,4.05-4.8,4.06-4.5.05-9.01.57-13.39,1.56-.37.08-.75.13-1.11.13-1.1,0-2.16-.36-3.04-1.02-1.18-.91-1.86-2.25-1.83-3.7.02-1.59.32-4.86.68-8.66.5-5.41,1.11-12.15.91-14.45-.13-1.54-1.28-2.41-2.31-2.69-1.03-.3-2.49-.19-3.51,1.02l-4.83,6.91c-.3.35-.75.88-1.48.99-1.03.14-1.76-.69-2.04-1.01l-5.72-4.52c-1.15-1.29-2.61-1.39-3.62-1.07-1.03.33-2.16,1.23-2.24,2.79-.08,1.32.76,5.15,1.6,8.85,1.1,4.99,2.14,9.71,1.83,11.52-.43,2.44-2.81,4.16-5.38,3.9-6.75-.68-13.54-.35-20.19.98-1.89.38-3.8-.28-5-1.7-1.06-1.27-1.35-2.88-.83-4.36.53-1.51,1.81-2.66,3.42-3.07,2.24-.57,4.1-1.09,5.86-1.61.7-.22,1.45-.27,2.18-.17l.38.05c-2.54-12.75-5.47-25.61-8.69-38.22-.32-1.23-.1-2.5.6-3.57.71-1.07,1.81-1.79,3.12-2.08l20.5-4.27c.68-.14,1.61-.35,2.51.02.83.35,1.33,1.05,1.68,1.56l6.96,9.99c.61.9,1.66,1.46,2.81,1.42,1.11-.02,2.08-.54,2.64-1.42,1.64-2.52,2.79-5.37,3.32-8.23.15-.77.33-1.73,1.16-2.33.61-.44,1.36-.49,1.91-.54l17.18-1.24c.71-.05,2.01-.14,2.89.65.9.82.83,2.09.8,2.79l-2.11,39.43c-.03.79-.05,1.43.25,1.92.38.63,1.25.9,2.24,1.21.6.19,1.21.38,1.78.68,1.66.85,3.51,2.85,2.91,7.51Z"/><path class="cls-1" d="m792.79,115.25c-1.27,0-2.54-.46-3.51-1.37-1.95-1.84-1.96-4.83-.02-6.68l19.19-18.3-19.18-18.17c-1.95-1.84-1.95-4.83,0-6.68,1.95-1.84,5.1-1.84,7.05,0l21.38,20.26c2.54,2.4,2.71,6.17.4,8.77l-.28.29-21.49,20.49c-.97.93-2.26,1.39-3.54,1.39Zm17.86-24.26h.02-.02Z"/><path class="cls-1" d="m762.32,59.37c.07,4.47-.45,8.94-1.53,13.28-1.21,4.91-4.55,5.71-5.95,5.82-1.84.16-4.49-.41-6.65-3.93l-.56-.94c-.7-1.18-1.36-2.3-2.14-3.08-.7-.72-1.43-.99-1.74-.96-.08.02-.55.11-1.41.85-1.84,1.59-2.96,4.06-3.04,6.77-.08,2.71.88,5.23,2.64,6.93,1.25,1.18,2.92,2.17,4.72,3.23,2.61,1.54,5.58,3.29,7.74,6.09,3.97,5.15,4.04,12.75.13,18.9-2.86,4.53-7.51,8.18-14.19,11.16-5.3,2.36-10.12,3.51-14.65,3.51-.65,0-1.3-.02-1.94-.06-6.81-.5-12.83-3.97-15.72-9.03-1.51-2.63-2.08-5.43-2.54-8.09-.42-2.39-1.18-6.83,2.29-10.28,2.66-2.64,6.85-3.01,9.74-.83,2.99,2.23,2.77,5.49,2.66,7.24-.03.49-.08,1.09-.03,1.34.05.2.53.69,1.33.98,1.28.44,3.06.42,4.77.42,3.01,0,5.83-.03,7.91-1.35.42-.27.75-.6.95-.93.66-1.12.48-2.49-2.53-5.86-1.55-1.72-3.22-3.53-5.05-5.07-.7-.57-1.41-1.12-2.13-1.67-1.43-1.1-2.92-2.24-4.3-3.62-3.19-3.24-3.97-5.3-5.13-8.44l-.4-1.09c-1.79-4.71-1.33-11.24,1.08-15.53,2.24-4,11.38-8.59,11.76-8.8,8.42-4.2,11.86-5.67,22.31-5.71,2.19-.02,4.5.13,6.7,1.26.71.38,1.41.87,2.14,1.51,1.76,1.56,2.74,3.68,2.77,6Z"/><path class="cls-1" d="m533.09,79.64c-1.14,2.76-.8,3.91-1.27,6.69-.1.58-.18,1.21.11,1.72.47.83,1.63.99,2.62,1.06,7.12.46,14.25.92,21.37,1.38.44.03.9.05,1.28-.16.39-.22.6-.63.78-1.03,1.12-2.49,1.88-5.12,2.25-7.81.05-.35.08-.74-.11-1.04-.22-.35-.68-.49-1.1-.6-4.25-1.06-8.69-1.17-13.08-1.28-3.67-.09-7.33-.18-11-.26-.5-.01-1.75,1.11-1.86,1.32Z"/><path class="cls-1" d="m459.61,74.95c-.17-.19-.3-.39-.42-.6-.55-1.02-.9-2.36-1.28-3.78-.27-1.05-.56-2.16-.98-3.29-.81-2.31-1.96-4.34-3.07-6.28-.71-1.26-1.38-2.44-1.91-3.6-.9-1.95-1.55-4.16-2.23-6.48-1.1-3.78-2.24-7.68-4.6-11.16-1.43-2.11-3.84-3.35-6.46-3.35h-.17c-2.67.05-5.07,1.39-6.41,3.56-6.43,10.39-12.23,21.26-17.26,32.34l-.32.13c-3.57,1.4-5.43,4.97-4.45,8.5,1,3.54,4.49,5.78,8.41,5.32l5.2-.63c3.06-.38,5.8-1.76,7.76-3.9.71-.79,2.91-3.2,1.66-6.2-.13-.33-.32-.65-.52-.93l2.69-5.51,6.41.09c1.28,2.44,1.4,5.48.32,8.15-.95,2.3-.58,4.86.98,6.85,1.45,1.86,3.69,2.93,6.1,2.93.18,0,.37,0,.56-.02,1.64-.13,3.31-.3,4.97-.52,2.72-.38,5.07-2.12,6.08-4.56,1.01-2.41.61-5.04-1.06-7.05Zm-21.65-24.7l3.84,9.49-6.85-.13h-.47l3.47-9.37Z"/><path class="cls-1" d="m613.88,90.5c-.12-2.12-.47-4.25-1.29-6.22-.88-2.11-2.28-3.99-3.8-5.74-3.01-3.48-6.56-6.59-10.64-8.9-9-5.1-25.05-9.09-34.52-1.88-.15.11-.23.43-.23.43-.66,1.42-.32,3.21.82,4.32,2.31,2.25,6.76,1.4,8.9,3.79,1.1,1.22,1.25,2.94,1.36,4.54.54,8.29,1.07,16.59,1.61,24.88.13,2.04-2.24,3.38-4.36,3.8-2.11.42-4.51.52-6,2-1.35,1.35-1.48,3.42-1.3,5.27.14,1.51.43,3.01.86,4.47.36,1.22.88,2.49,1.98,3.21,1.34.87,3.13.67,4.74.44,4.34-.63,8.67-1.26,13.01-1.89,4.06-.59,8.18-1.2,11.9-2.84,3.77-1.67,6.98-4.35,9.55-7.45,5.18-6.24,7.86-14.3,7.4-22.22Zm-15.48,8.32c-1.55,3.51-3.41,7.17-6.8,9.21-.21.13-.44.25-.69.25-.39-.01-.68-.33-.9-.63-1.09-1.57-1.36-3.51-1.58-5.38-.9-7.67-1.35-15.38-1.81-23.08-.04-.57.04-1.1.89-1.04,4.45.65,7.28,4.47,9.86,7.97,1.07,1.45,2.17,2.95,2.59,4.68.65,2.69-.43,5.47-1.56,8.02Z"/></g></svg>